<svg xmlns="http://www.w3.org/2000/svg" width="198" height="179" viewBox="0 0 198 179">
    <title>Artboard</title>
    <path fill="#fff" fill-rule="evenodd" d="m101.904 1.462 37.785 45.32.107.134.083.11 8.907 3.689 20.691-17.95a4.07 4.07 0 0 1 5.331 0l21.688 18.816a4.02 4.02 0 0 1 1.389 3.386l.013.005v82.476l-98.95 40.972L0 137.448v-63.77c.033-1.501.87-2.986 2.51-3.665L57.552 47.22l-.018.028q.15-.24.338-.467L95.656 1.462a4.068 4.068 0 0 1 6.248 0M193.83 118.81l-92.849 38.446v15.923l92.85-38.446zm-189.764 0v15.923l92.849 38.446v-15.922zm107.081 39.632a2.71 2.71 0 1 1 .002 5.42 2.71 2.71 0 0 1-.002-5.42m82.683-59.954-92.849 38.447v15.923l92.85-38.446zm-189.764 0v15.924l92.849 38.446v-15.922zm161.396 42.855a1.355 1.355 0 0 1-.755 1.76l-6.293 2.516a1.356 1.356 0 0 1-1.007-2.515l6.293-2.516a1.356 1.356 0 0 1 1.762.755m-54.315-3.223a2.71 2.71 0 1 1 .002 5.42 2.71 2.71 0 0 1-.002-5.42m54.315-1.519a1.355 1.355 0 0 1-.755 1.761l-6.293 2.516a1.356 1.356 0 0 1-1.007-2.516l6.293-2.516a1.356 1.356 0 0 1 1.762.755m12.199-.677a1.355 1.355 0 0 1-.755 1.76l-6.293 2.516a1.356 1.356 0 0 1-1.007-2.515l6.293-2.516a1.356 1.356 0 0 1 1.762.755m0-4.742a1.355 1.355 0 0 1-.755 1.76l-6.293 2.517a1.356 1.356 0 0 1-1.007-2.516l6.293-2.516a1.356 1.356 0 0 1 1.762.755m12.199-.678a1.355 1.355 0 0 1-.755 1.762l-6.293 2.515a1.356 1.356 0 0 1-1.007-2.515l6.293-2.516a1.356 1.356 0 0 1 1.762.754M4.066 78.166v15.923l92.849 38.446v-15.922zm189.764 0-92.849 38.446v15.923l92.85-38.446zm-3.97 47.596a1.355 1.355 0 0 1-.755 1.76l-6.293 2.517a1.356 1.356 0 0 1-1.007-2.516l6.293-2.516a1.356 1.356 0 0 1 1.762.755m-24.398-4.742a1.355 1.355 0 0 1-.755 1.761l-6.293 2.516a1.356 1.356 0 0 1-1.007-2.516l6.293-2.516a1.356 1.356 0 0 1 1.762.755m-54.315-3.222a2.71 2.71 0 1 1 .002 5.42 2.71 2.71 0 0 1-.002-5.42m54.315-1.52a1.355 1.355 0 0 1-.755 1.761l-6.293 2.516a1.356 1.356 0 0 1-1.007-2.516l6.293-2.515a1.356 1.356 0 0 1 1.762.754m12.199-.677a1.355 1.355 0 0 1-.755 1.761l-6.293 2.516a1.356 1.356 0 0 1-1.007-2.516l6.293-2.516a1.356 1.356 0 0 1 1.762.755m0-4.742a1.355 1.355 0 0 1-.755 1.761l-6.293 2.516a1.356 1.356 0 0 1-1.007-2.516l6.293-2.515a1.356 1.356 0 0 1 1.762.754m12.199-.677a1.355 1.355 0 0 1-.755 1.76l-6.293 2.517a1.356 1.356 0 0 1-1.007-2.516l6.293-2.516a1.356 1.356 0 0 1 1.762.755M41.167 71.059l-30.556-.002-6.545 2.71 94.882 39.289 13.084-5.42h-26.17l-9.816-4.065 37.166.002c-4.818-3.08-10.495-5.794-17.043-8.13H56.415l-9.814-4.065 35.73.002a179 179 0 0 0-8.699-1.85l-1.517-.279c-7.177-1.29-13.239-3.304-18.183-6L26.97 83.25l-9.815-4.065 30.76.002c-2.827-2.372-5.077-5.087-6.749-8.128M189.86 105.44a1.355 1.355 0 0 1-.755 1.761l-6.293 2.516a1.356 1.356 0 0 1-1.007-2.516l6.293-2.516a1.356 1.356 0 0 1 1.762.755m-24.398-4.742a1.355 1.355 0 0 1-.755 1.761l-6.293 2.516a1.356 1.356 0 0 1-1.007-2.516l6.293-2.515a1.356 1.356 0 0 1 1.762.754m-25.42-49.202.028-.049a4.03 4.03 0 0 1-1.948 1.691l-7.234 2.995 6.94 11.962a4.063 4.063 0 0 1-2.014 5.815l-10.435 4.148v5.193h-4.066v-5.289L111.12 73.91a4.063 4.063 0 0 1-2.017-5.81l2.239-3.874-11.005 4.558a4.07 4.07 0 0 1-3.113 0L59.439 53.138a4.03 4.03 0 0 1-1.787-1.438l-.064-.094-8.018 3.32c-.242 12.153 7.758 19.139 24.08 22.21l.624.115c24.496 4.403 42.873 12.1 54.94 23.272l38.6-15.983-21.425-8.587V54.972l.012-.005a4 4 0 0 1 .037-.965l-.019.133zm25.42 44.46a1.355 1.355 0 0 1-.755 1.762l-6.293 2.516a1.356 1.356 0 0 1-1.007-2.516l6.293-2.516a1.356 1.356 0 0 1 1.762.755m12.199-.677a1.355 1.355 0 0 1-.755 1.761l-6.293 2.516a1.356 1.356 0 0 1-1.007-2.516l6.293-2.515a1.356 1.356 0 0 1 1.762.754m0-4.741a1.355 1.355 0 0 1-.755 1.76l-6.293 2.516a1.356 1.356 0 0 1-1.007-2.515l6.293-2.516a1.356 1.356 0 0 1 1.762.755m12.199-.678a1.355 1.355 0 0 1-.755 1.761l-6.293 2.516a1.356 1.356 0 0 1-1.007-2.516l6.293-2.515a1.356 1.356 0 0 1 1.762.754m0-4.741a1.355 1.355 0 0 1-.755 1.76l-6.293 2.516a1.356 1.356 0 0 1-1.007-2.515l6.293-2.516a1.356 1.356 0 0 1 1.762.755M150.455 59v14.204l6.777 2.715v-8.925l6.778 2.71v8.932l6.777 2.717V66.761l-.095-.035zm43.375 0-18.977 7.245v14.564l18.977-7.605zm-70.381-7.586-10.826 18.72 10.844 4.31 10.844-4.31zm-85.7 8.407-17.323 7.172 18.92.002c-.798-2.246-1.33-4.64-1.597-7.174M98.78 4.064l-37.784 45.32L98.78 65.028l15.907-6.587 5.241-9.062c1.564-2.705 5.47-2.708 7.038-.005l1.864 3.211 7.735-3.203zm72.007 58.348V37.009L150.456 54.65zm4.066-24.227v23.709l18.977-7.244zM98.84 9.483l15.954 19.135-11.44-2.268-4.514 8.874-5.991-8.874-9.962 2.268z"/>
</svg>
