<?xml version="1.0" encoding="UTF-8"?>
<svg width="198px" height="179px" viewBox="0 0 198 179" version="1.1" xmlns="http://www.w3.org/2000/svg" xmlns:xlink="http://www.w3.org/1999/xlink">
    <title>Artboard</title>
    <g id="Artboard" stroke="none" stroke-width="1" fill="none" fill-rule="evenodd">
        <path d="M101.904193,1.46240625 L139.689016,46.7813884 L139.796298,46.9155195 L139.878684,47.0267301 L148.786,50.715 L169.477234,32.7645146 C171.006429,31.4377561 173.279284,31.4377561 174.808479,32.7645146 L196.495768,51.5808174 C197.542589,52.4890592 197.981614,53.7527336 197.884509,54.9667601 L197.897647,54.9720046 L197.897647,137.447767 L98.9482561,178.419997 L0,137.447767 L0,73.6773824 C0.0331321837,72.176739 0.869478569,70.6918906 2.51000417,70.0125861 L57.5517442,47.2201014 L57.5341674,47.248124 C57.6338654,47.0877363 57.7462558,46.9317628 57.8716309,46.7813884 L95.6564541,1.46240625 C97.2821677,-0.48746875 100.278479,-0.48746875 101.904193,1.46240625 Z M193.830146,118.809 L100.981,157.255 L100.981,173.178 L193.830146,134.732255 L193.830146,118.809 Z M4.066,118.809 L4.066,134.732255 L96.915,173.178 L96.915,157.256 L4.066,118.809 Z M111.147356,158.440796 C112.644551,158.440796 113.858267,159.653902 113.858267,161.150344 C113.858267,162.646786 112.644551,163.859892 111.147356,163.859892 C109.650161,163.859892 108.436445,162.646786 108.436445,161.150344 C108.436445,159.653902 109.650161,158.440796 111.147356,158.440796 Z M193.830146,98.487 L100.981,136.934 L100.981,152.857 L193.830146,114.410648 L193.830146,98.487 Z M4.066,98.487 L4.066,114.410648 L96.915,152.857 L96.915,136.935 L4.066,98.487 Z M165.461626,141.341667 C165.739649,142.036373 165.401576,142.824811 164.706521,143.102693 L158.413977,145.618445 C157.718921,145.896327 156.930086,145.558425 156.652064,144.86372 C156.374042,144.169014 156.712114,143.380576 157.40717,143.102693 L163.699714,140.586941 C164.394769,140.309059 165.183604,140.646961 165.461626,141.341667 Z M111.147356,138.119189 C112.644551,138.119189 113.858267,139.332295 113.858267,140.828737 C113.858267,142.325179 112.644551,143.538285 111.147356,143.538285 C109.650161,143.538285 108.436445,142.325179 108.436445,140.828737 C108.436445,139.332295 109.650161,138.119189 111.147356,138.119189 Z M165.461626,136.599959 C165.739649,137.294664 165.401576,138.083103 164.706521,138.360985 L158.413977,140.876737 C157.718921,141.154619 156.930086,140.816717 156.652064,140.122011 C156.374042,139.427306 156.712114,138.638867 157.40717,138.360985 L163.699714,135.845233 C164.394769,135.567351 165.183604,135.905253 165.461626,136.599959 Z M177.660727,135.922572 C177.938749,136.617277 177.600676,137.405716 176.905621,137.683598 L170.613077,140.19935 C169.918021,140.477232 169.129186,140.13933 168.851164,139.444624 C168.573142,138.749919 168.911214,137.96148 169.60627,137.683598 L175.898814,135.167846 C176.593869,134.889964 177.382704,135.227866 177.660727,135.922572 Z M177.660727,131.180863 C177.938749,131.875569 177.600676,132.664007 176.905621,132.94189 L170.613077,135.457642 C169.918021,135.735524 169.129186,135.397622 168.851164,134.702916 C168.573142,134.00821 168.911214,133.219772 169.60627,132.94189 L175.898814,130.426138 C176.593869,130.148256 177.382704,130.486158 177.660727,131.180863 Z M189.859827,130.503477 C190.137849,131.198182 189.799777,131.986621 189.104721,132.264503 L182.812177,134.780255 C182.117122,135.058137 181.328286,134.720235 181.050264,134.025529 C180.772242,133.330823 181.110314,132.542385 181.80537,132.264503 L188.097914,129.748751 C188.792969,129.470869 189.581804,129.808771 189.859827,130.503477 Z M4.066,78.166 L4.066,94.0890407 L96.915,132.535 L96.915,116.613 L4.066,78.166 Z M193.830146,78.166 L100.981,116.612 L100.981,132.535 L193.830146,94.0890407 L193.830146,78.166 Z M189.859827,125.761768 C190.137849,126.456474 189.799777,127.244912 189.104721,127.522794 L182.812177,130.038546 C182.117122,130.316429 181.328286,129.978526 181.050264,129.283821 C180.772242,128.589115 181.110314,127.800677 181.80537,127.522794 L188.097914,125.007043 C188.792969,124.72916 189.581804,125.067063 189.859827,125.761768 Z M165.461626,121.02006 C165.739649,121.714766 165.401576,122.503204 164.706521,122.781086 L158.413977,125.296838 C157.718921,125.57472 156.930086,125.236818 156.652064,124.542112 C156.374042,123.847407 156.712114,123.058968 157.40717,122.781086 L163.699714,120.265334 C164.394769,119.987452 165.183604,120.325354 165.461626,121.02006 Z M111.147356,117.797582 C112.644551,117.797582 113.858267,119.010688 113.858267,120.50713 C113.858267,122.003572 112.644551,123.216678 111.147356,123.216678 C109.650161,123.216678 108.436445,122.003572 108.436445,120.50713 C108.436445,119.010688 109.650161,117.797582 111.147356,117.797582 Z M165.461626,116.278352 C165.739649,116.973057 165.401576,117.761496 164.706521,118.039378 L158.413977,120.55513 C157.718921,120.833012 156.930086,120.49511 156.652064,119.800404 C156.374042,119.105698 156.712114,118.31726 157.40717,118.039378 L163.699714,115.523626 C164.394769,115.245744 165.183604,115.583646 165.461626,116.278352 Z M177.660727,115.600965 C177.938749,116.29567 177.600676,117.084109 176.905621,117.361991 L170.613077,119.877743 C169.918021,120.155625 169.129186,119.817723 168.851164,119.123017 C168.573142,118.428312 168.911214,117.639873 169.60627,117.361991 L175.898814,114.846239 C176.593869,114.568357 177.382704,114.906259 177.660727,115.600965 Z M177.660727,110.859256 C177.938749,111.553962 177.600676,112.3424 176.905621,112.620283 L170.613077,115.136034 C169.918021,115.413917 169.129186,115.076015 168.851164,114.381309 C168.573142,113.686603 168.911214,112.898165 169.60627,112.620283 L175.898814,110.104531 C176.593869,109.826649 177.382704,110.164551 177.660727,110.859256 Z M189.859827,110.181869 C190.137849,110.876575 189.799777,111.665013 189.104721,111.942896 L182.812177,114.458648 C182.117122,114.73653 181.328286,114.398628 181.050264,113.703922 C180.772242,113.009216 181.110314,112.220778 181.80537,111.942896 L188.097914,109.427144 C188.792969,109.149262 189.581804,109.487164 189.859827,110.181869 Z M41.167324,71.0594361 L10.611,71.057 L4.06636669,73.7674337 L98.9482561,113.055874 L112.032469,107.636884 L85.8626881,107.635529 L76.0464789,103.571208 L113.212069,103.573103 C108.394467,100.492526 102.716881,97.7793609 96.1686661,95.4438531 L56.415416,95.442565 L46.6005623,91.3782436 L82.3303813,91.3800154 C79.5463708,90.7126297 76.6470975,90.0957216 73.6320547,89.5297788 L72.1148835,89.2510568 C64.9383474,87.9609621 58.8763926,85.9469796 53.9317666,83.2517977 L26.9708548,83.2496008 L17.1560011,79.1852794 L47.916386,79.1872965 C45.0887026,76.8145605 42.8386754,74.0999929 41.167324,71.0594361 Z M189.859827,105.440161 C190.137849,106.134867 189.799777,106.923305 189.104721,107.201187 L182.812177,109.716939 C182.117122,109.994821 181.328286,109.656919 181.050264,108.962214 C180.772242,108.267508 181.110314,107.47907 181.80537,107.201187 L188.097914,104.685436 C188.792969,104.407553 189.581804,104.745455 189.859827,105.440161 Z M165.461626,100.698453 C165.739649,101.393159 165.401576,102.181597 164.706521,102.459479 L158.413977,104.975231 C157.718921,105.253113 156.930086,104.915211 156.652064,104.220505 C156.374042,103.5258 156.712114,102.737361 157.40717,102.459479 L163.699714,99.9437273 C164.394769,99.665845 165.183604,100.003747 165.461626,100.698453 Z M140.041271,51.4958584 L140.070285,51.4471549 C139.643652,52.1748309 138.983527,52.781209 138.121509,53.1381511 L130.888,56.133 L137.828325,68.0948071 C139.073934,70.2415562 138.120694,72.9931158 135.813618,73.9103235 L125.379,78.058 L125.37964,83.2508503 L121.313273,83.2508503 L121.313,77.962 L111.120487,73.9103235 C108.815646,72.9940043 107.861538,70.2464594 109.102792,68.0999675 L111.341809,64.226 L100.336686,68.7839902 C99.3401771,69.196622 98.22047,69.196622 97.223961,68.7839902 L59.4391378,53.1381511 C58.6792321,52.8234914 58.0762215,52.3149906 57.6517524,51.7004313 L57.5881642,51.6055256 L49.5697844,54.9253449 C49.3276061,67.0788894 57.3276248,74.0648252 73.6504619,77.1359 L74.2743173,77.2506438 C98.7702773,81.654176 117.147218,89.3501003 129.213196,100.523181 L167.814,84.5402077 L146.389201,75.9530813 L146.389201,54.9720046 L146.401204,54.9667601 C146.37555,54.6460303 146.387315,54.3218353 146.437821,54.0016444 L146.419,54.1353923 L140.041271,51.4958584 Z M165.461626,95.9567445 C165.739649,96.6514502 165.401576,97.4398885 164.706521,97.7177708 L158.413977,100.233523 C157.718921,100.511405 156.930086,100.173503 156.652064,99.4787971 C156.374042,98.7840914 156.712114,97.9956531 157.40717,97.7177708 L163.699714,95.202019 C164.394769,94.9241367 165.183604,95.2620389 165.461626,95.9567445 Z M177.660727,95.2793576 C177.938749,95.9740633 177.600676,96.7625016 176.905621,97.0403839 L170.613077,99.5561357 C169.918021,99.834018 169.129186,99.4961158 168.851164,98.8014101 C168.573142,98.1067045 168.911214,97.3182662 169.60627,97.0403839 L175.898814,94.5246321 C176.593869,94.2467498 177.382704,94.584652 177.660727,95.2793576 Z M177.660727,90.5376493 C177.938749,91.232355 177.600676,92.0207933 176.905621,92.2986756 L170.613077,94.8144274 C169.918021,95.0923096 169.129186,94.7544075 168.851164,94.0597018 C168.573142,93.3649962 168.911214,92.5765578 169.60627,92.2986756 L175.898814,89.7829238 C176.593869,89.5050415 177.382704,89.8429436 177.660727,90.5376493 Z M189.859827,89.8602624 C190.137849,90.5549681 189.799777,91.3434064 189.104721,91.6212887 L182.812177,94.1370405 C182.117122,94.4149227 181.328286,94.0770206 181.050264,93.3823149 C180.772242,92.6876093 181.110314,91.8991709 181.80537,91.6212887 L188.097914,89.1055369 C188.792969,88.8276546 189.581804,89.1655567 189.859827,89.8602624 Z M189.859827,85.1185541 C190.137849,85.8132598 189.799777,86.6016981 189.104721,86.8795804 L182.812177,89.3953322 C182.117122,89.6732144 181.328286,89.3353123 181.050264,88.6406066 C180.772242,87.9459009 181.110314,87.1574626 181.80537,86.8795804 L188.097914,84.3638286 C188.792969,84.0859463 189.581804,84.4238484 189.859827,85.1185541 Z M150.455,59 L150.455567,73.2039437 L157.232,75.919 L157.232845,66.9935646 L164.010123,69.7031123 L164.01,78.636 L170.787,81.353 L170.78731,66.7610912 L170.691959,66.7260472 L150.455,59 Z M193.830146,59 L174.853,66.245 L174.853,80.809 L193.830146,73.2039437 L193.830146,59 Z M123.448708,51.4136659 L112.623408,70.1337896 L123.467053,74.4448206 L134.310697,70.1337896 L123.448708,51.4136659 Z M37.7493146,59.8207237 L20.426,66.993 L39.3457644,66.9953856 C38.5476141,64.7487643 38.0153584,62.3555674 37.7493146,59.8207237 Z M98.7803235,4.06432141 L60.9955003,49.3833036 L98.7803235,65.0291426 L114.686809,58.442 L119.928092,49.3798437 C121.492337,46.6748047 125.398122,46.6719411 126.966336,49.3746834 L128.83,52.586 L136.565147,49.3833036 L98.7803235,4.06432141 Z M170.787,62.412 L170.787,37.009 L150.455567,54.65007 L170.787,62.412 Z M174.853,38.185 L174.853,61.894 L193.830146,54.65007 L174.853,38.185 Z M98.8402995,9.48341663 L114.793891,28.618098 L103.353487,26.3503505 L98.8402995,35.2241189 L92.8487061,26.3503505 L82.8867074,28.618098 L98.8402995,9.48341663 Z" id="Shape" fill="#B6BBD1" fill-rule="nonzero"></path>
    </g>
</svg>